<?xml version="1.0" encoding="UTF-8" standalone="no"?>
<svg 
    xmlns="http://www.w3.org/2000/svg" 
    version="1.1" 
    xmlns:xlink="http://www.w3.org/1999/xlink" 
    xmlns:svgjs="http://svgjs.dev/svgjs" 
    width="308.7612359841165" 
    height="304.915625" 
    viewBox="0 0 2000 2250">
    <g transform="matrix(1,0,0,1,0,0)">
    <svg viewBox="0 0 320 360" data-background-color="#102e44" preserveAspectRatio="xMidYMid meet" height="2250" width="2000" xmlns="http://www.w3.org/2000/svg" xmlns:xlink="http://www.w3.org/1999/xlink"><g id="tight-bounds" transform="matrix(1,0,0,1,0,0)"><svg viewBox="0 0 320 360" height="360" width="320"><g><svg></svg></g><g><svg viewBox="0 0 320 360" height="360" width="320"><g><path d="M320 187.111c0-45.764-20.238-86.866-52.203-114.908-28.043-31.964-69.145-52.203-114.908-52.203-84.302 0-152.889 68.587-152.889 152.889 0 45.753 20.231 86.848 52.185 114.891 28.043 31.975 69.152 52.22 114.926 52.22 0.299 0 0.59-0.021 0.889-0.021 0.299 0 0.59 0.021 0.889 0.021 83.456 0 151.111-67.655 151.111-151.111 0-0.299-0.021-0.59-0.021-0.889 0-0.299 0.021-0.59 0.021-0.889zM59.833 263.097c-15.093-21.255-24.071-47.143-24.256-75.097 0.48-72.928 59.492-131.943 132.423-132.423 27.954 0.185 53.845 9.163 75.097 24.256 24.366 23.627 39.57 56.64 39.57 93.056 0 71.559-58.219 129.778-129.778 129.778-36.416 0-69.429-15.204-93.056-39.57zM3.556 172.889c0-82.343 66.99-149.333 149.333-149.333 35.051 0 67.292 12.167 92.8 32.462-22.98-13.824-49.863-21.796-78.578-21.796-84.302 0-152.889 68.587-152.889 152.889 0 28.708 7.968 55.584 21.785 78.56-20.288-25.5-32.452-57.739-32.451-92.782zM167.111 318.667c-35.84 0-68.363-14.418-92.107-37.743 21.952 15.89 48.864 25.298 77.885 25.298 73.522 0 133.333-59.812 133.333-133.333 0-29.02-9.408-55.932-25.298-77.885 23.324 23.744 37.742 56.267 37.743 92.107 0 72.54-59.015 131.556-131.556 131.556z" fill="#93e9be" fill-rule="nonzero" stroke="none" stroke-width="1" stroke-linecap="butt" stroke-linejoin="miter" stroke-miterlimit="10" stroke-dasharray="" stroke-dashoffset="0" font-family="none" font-weight="none" font-size="none" text-anchor="none" style="mix-blend-mode: normal" data-fill-palette-color="tertiary"></path></g><g transform="matrix(1,0,0,1,64,121.81818181818181)"><svg viewBox="0 0 192 116.36363636363636" height="116.36363636363636" width="192"><g><svg viewBox="0 0 192 116.36363636363636" height="116.36363636363636" width="192"><g><svg viewBox="0 0 192 116.36363636363636" height="116.36363636363636" width="192"><g><svg viewBox="0 0 192 116.36363636363636" height="116.36363636363636" width="192"><g id="textblocktransform"><svg viewBox="0 0 192 116.36363636363636" height="116.36363636363636" width="192" id="textblock"><g><svg viewBox="0 0 192 116.36363636363636" height="116.36363636363636" width="192"><g transform="matrix(1,0,0,1,0,0)"><svg width="192" viewBox="1.42 -28.81 48.339999999999996 29.3" height="116.36363636363636" data-palette-color="#ffffff"><path d="M7.03-0.29L7.03-0.29Q5.91 0.49 4.47 0.49 3.03 0.49 2.38-0.18 1.73-0.85 1.73-1.46L1.73-1.46Q1.73-2.27 2-2.64L2-2.64Q2.54-2.22 3.37-2.22L3.37-2.22Q4.93-2.22 5.4-3.74L5.4-3.74 5.4-11.35Q5.4-12.43 4.93-12.92L4.93-12.92Q4.27-13.67 2.42-14.58L2.42-14.58Q4.13-15.36 4.59-15.82L4.59-15.82Q5.4-16.63 5.4-17.8L5.4-17.8 5.4-21.36Q5.4-23.44 3.98-23.61L3.98-23.61Q3.56-23.66 2.93-23.66 2.29-23.66 1.76-23.24L1.76-23.24Q1.42-23.71 1.42-24.21 1.42-24.71 1.67-25.33 1.93-25.95 2.44-26.51L2.44-26.51Q3.74-27.83 5.43-27.83 7.13-27.83 8.25-27.29L8.25-27.29Q9.59-28.81 11.13-28.81L11.13-28.81Q13.65-28.81 13.65-26.17L13.65-26.17 13.62-24.15Q15.67-27.42 19.34-28.47L19.34-28.47Q20.53-28.81 21.8-28.81L21.8-28.81Q24.68-28.81 26.59-27.42 28.49-26.03 29.32-23.46L29.32-23.46Q31.15-27.25 35.25-28.42L35.25-28.42Q36.6-28.81 38.29-28.81 39.99-28.81 41.49-28.16 42.99-27.51 44.04-26.32L44.04-26.32Q46.17-23.83 46.17-19.43L46.17-19.43 46.09-17.8Q46.09-16.63 46.61-16.11L46.61-16.11Q47.36-15.36 49.07-14.58L49.07-14.58Q47.22-13.67 46.78-13.18L46.78-13.18Q46.09-12.43 46.09-11.35L46.09-11.35 46.09-3.74Q46.56-2.22 48.12-2.22L48.12-2.22Q48.71-2.22 49.24-2.64L49.24-2.64Q49.39-2.44 49.57-2.26 49.76-2.08 49.76-1.46 49.76-0.85 49.11-0.18 48.46 0.49 47.06 0.49 45.65 0.49 44.46-0.29L44.46-0.29Q43.36 0.49 42 0.49 40.65 0.49 39.62-0.24L39.62-0.24Q38.67 0.49 37.49 0.49 36.3 0.49 35.6-0.12 34.89-0.73 34.89-1.88L34.89-1.88Q34.89-2.42 35.25-2.73L35.25-2.73Q35.82-2.29 36.38-2.29L36.38-2.29Q37.45-2.29 37.92-3.49L37.92-3.49 37.92-18.04Q37.92-23.78 33.74-23.78L33.74-23.78Q32.54-23.78 31.4-22.39L31.4-22.39Q30.25-21.02 29.91-19.07L29.91-19.07 29.83-3.49Q30.3-2.29 31.37-2.29L31.37-2.29Q31.93-2.29 32.5-2.73L32.5-2.73Q32.86-2.42 32.86-1.57 32.86-0.73 32.15-0.12 31.45 0.49 30.25 0.49 29.05 0.49 28.1-0.24L28.1-0.24Q27.05 0.49 25.72 0.49 24.39 0.49 23.36-0.24L23.36-0.24Q22.41 0.49 21.23 0.49 20.04 0.49 19.34-0.12 18.63-0.73 18.63-1.88L18.63-1.88Q18.63-2.42 18.99-2.73L18.99-2.73Q19.56-2.29 20.12-2.29L20.12-2.29Q21.19-2.29 21.66-3.49L21.66-3.49 21.66-18.04Q21.66-22.61 19.43-23.49L19.43-23.49Q18.73-23.78 17.87-23.78L17.87-23.78Q16.24-23.78 15.04-22.36L15.04-22.36Q13.92-21.04 13.62-19.04L13.62-19.04 13.57-3.49Q14.04-2.29 15.11-2.29L15.11-2.29Q15.67-2.29 16.24-2.73L16.24-2.73Q16.67-2.37 16.67-1.55 16.67-0.73 15.93-0.12 15.19 0.49 13.98 0.49 12.77 0.49 11.84-0.22L11.84-0.22Q10.86 0.49 9.52 0.49 8.18 0.49 7.03-0.29ZM39.53-22.73L39.53-22.73Q40.26-20.95 40.26-15.77L40.26-15.77 40.26-6.47Q41.48-6.93 41.6-9.67L41.6-9.67Q41.75-12.4 41.75-14.51 41.75-16.63 41.63-18.04 41.5-19.46 41.24-20.41L41.24-20.41Q40.75-22.12 39.53-22.73ZM23.27-22.73L23.27-22.73Q24-20.95 24-15.77L24-15.77 24-6.47Q25.22-6.93 25.34-9.67L25.34-9.67Q25.49-12.4 25.49-14.51 25.49-16.63 25.37-18.04 25.24-19.46 24.98-20.41L24.98-20.41Q24.49-22.12 23.27-22.73ZM7.74-8.06L7.74-6.47Q8.89-7.2 9.03-9.52L9.03-9.52Q9.13-11.28 9.13-12.67L9.13-12.67 9.13-15.77Q9.13-19.38 8.94-20.41L8.94-20.41Q8.59-22.17 7.74-22.73L7.74-22.73 7.74-21.14Q7.74-17.02 7.56-16.3 7.37-15.58 6.97-15.21 6.57-14.84 5.79-14.58L5.79-14.58Q7.25-14.06 7.45-13.35L7.45-13.35Q7.74-12.18 7.74-8.06L7.74-8.06Z" opacity="1" transform="matrix(1,0,0,1,0,0)" fill="#ffffff" class="wordmark-text-0" data-fill-palette-color="primary" id="text-0"></path></svg></g></svg></g></svg></g></svg></g><g></g></svg></g></svg></g></svg></g></svg></g><defs></defs></svg><rect width="320" height="360" fill="none" stroke="none" visibility="hidden"></rect></g></svg></g></svg>